<?xml version='1.0' encoding='utf-8'?>
<svg xmlns="http://www.w3.org/2000/svg" enable-background="new 0 0 850.39 850.39" version="1.1" viewBox="0 0 850.39 850.39">
<path d="m239.5 553.85c-7.495 5.259-15.906 9.229-22.667 15.896 7.092 3.354 15.772 5.359 23.666 4.994-5.235 12.244-13.251 14.408-22.838 22.565 10.058 3.222 15.183 6.517 25.137 9.614-5.267 5.267-12.27 12.051-13.786 20.011 8.446 0.501 12.022 2.883 20.577 2.699-5.031 3.736-7.607 10.244-12.043 14.851 11.215 0.594 22.732-0.141 33.999 0.321 1.318 4.286 1.602 9.032 1.468 13.473 8.201-0.331 16.315-4.496 24.936-4.247 0.099 4.02 0.221 8.268 0.352 12.289 10.997-0.173 21.999-5.367 33.045-5.422-6.408 18.165 15.335 7.472 21.749 5.566 13.676-4.061 13.474 2.24 24.338 10.237 3.831-1.939 8.282-4.303 12.411-6.353 1.976 5.812 5.658 11.296 9.429 15.853 4.337-4.599 10.276-7.917 15.006-11.908 1.917 4.59 4.484 9.53 7.663 13.636 4.628-4.019 6.754-10.34 10.664-14.673 6.981 6.235 14.847 10.251 22.819 14.992 0.966-4.782 2.843-8.907 4.682-13.361 8.058 3.346 17.467 9.401 26.345 11.025-0.085-5.462 2.275-10.063 5.068-14.729 9.895 9.163 24.883 16.298 37.49 20.317 0.066-6.184-1.659-13.908 4.753-15.597 5.057-1.332 20.746 8.733 26.314 10.005-0.696-7.598 4.309-13.916 3.65-21.614 6.307 6.307 11.688 9.893 21.599 14.11 1.924-7.419 3.015-14.729 3.775-20.925 7.022-0.364 14.319 2e-3 21.317-0.352-12.934-13.953-16.533-42.339-26.345-59.449-11.412 3.089-25.17-1.566-36.93-3.788-28.737-5.429-57.66-10.082-86.46-15.584-42.298-8.082-86.028-15.808-127.88-26.501-23.084-5.898-46.08-10.562-69.103-16.34-17.515-4.396-31.948-3.644-46.791 5.803 5.922 1.351 17.966 9.928 22.586 12.586" fill="#231F20"/>
<path d="m450.55 647.66s-11.512 16.933-11.512 43.552c0 6.87 8.379 19.66 13.953 23.677 4.927 3.55 23.754 5.075 23.754 5.075s0.221 9.552 12.187 12.686c17.76 4.651 28.33-10.571 28.33-10.571s4.909 3.875 6.901 4.229c21.429 3.806 37.389-23.98 38.765-30.284 3.381-15.491 2.537-41.175 2.537-41.175l-114.92-7.189z" fill="#C09B75"/>
<path d="m298.24 629.48s-8.538 26.784-8.034 36.364c0.745 14.171 8.857 42.144 19.45 51.585 1.572 1.401 5.94 2.762 8.034 2.537 2.542-0.272 8.879-5.074 8.879-5.074s10.813 7.878 14.985 9.303c2.557 0.873 8.242 0.847 10.808 0 3.373-1.113 11.417-8.457 11.417-8.457l7.143 6.766s9.141 2.908 11.884 1.691c12.1-5.366 23.09-34.134 23.679-47.357 0.358-8.058-11.807-30.021-11.807-30.021l-96.438-17.337z" fill="#C09B75"/>
<path d="m310.76 225.12c-3.246 0.247-16.897-5.759-21.534-6.561 1.613 4.821 9.04 15.958 9.61 21.33-8.826-0.458-18.07 0.986-26.983 1.497-1.351 6.315 1.744 20.552 4.336 26.171-7.063 1.575-14.22 5.012-21.723 5.986 0 9.561 5.358 18.777 8.797 27.009-5.682 0.29-14.798 5.832-20.135 8.638 1.277 7.548 8.637 16.663 14.351 22.845-5.775 2.042-22.408 13.774-22.408 13.774s13.652 15.594 17.031 20.43c-6.927 3.825-18.5 11.693-25.975 13.916 5.315 12.03 14.571 15.881 20.146 26.377-8.842 2.203-16.493 6.873-25.051 9.595 2.244 7.025 10.834 14.676 15.855 20.227-7.522 2.322-13.262 8.131-20.127 10.864 5.364 5.003 14.809 6.834 21.363 11.238-2.224 1.042-18.526 14.935-18.526 14.935s15.776 9.191 20.829 11.758c-6.717 10.652-16.993 14.312-26.176 21.261 5.44 5.44 17.051 14.145 22.157 14.057-5.944 5.944-12.727 15.266-19.688 20.805 20.771 5.399 45.472 9.813 63.969 22.609 12.313 8.519 23.895 17.936 36.234 26.445 6.905 4.762 11.547 9.214 19.773 10.652 7.647 1.337 12.434 0.128 19.882 3.166 11.864 4.84 21.861 13.612 33.588 18.451 22.694 9.365 49.048 6.621 72.97 11.378 31.46 6.256 68.963 6.331 101.28 3.53 8.01-0.694 9.524-1.997 17.768 0.546 6.997 2.158 11.854 6.307 19.166 6.61 10.632 0.442 18.229 1.32 29.595 1.459-3.723-1.339-5.722-8.843-6.492-12.779 8.227-0.414 16.246 0.592 23.995-2.732-3.622-3.685-7.12-8.89-6.687-14.513 6.454-1.065 16.229-0.548 20.473-4.575-4.598-0.077-12.069-6.664-11.478-11.713 0.635-5.416 11.555-9.028 16.045-11.477-3.57-3.229-6.544-8.594-7.896-13.552 6.391-2.352 12.766-7.423 19.364-7.423-3.715-7.805-11.207-11.033-14.906-18.755 8.666 0 16.13-5.735 23.876-7.978-4.377-4.377-11.134-8.656-15.351-12.889 4.795-5.819 10.776-8.875 15.351-14.752-7.02-3.773-12.535-4.971-18.903-11.34 4.405-11.725 11.725-20.374 16.856-26.924-9.566 0.237-15.032-2.422-22.527-7.3 2.892-3.262 12.581-20.393 12.581-20.393s-9.413-8.458-15.414-13.856c6.864-4.845 13.43-14.253 14.674-23.079-4.104 2.599-13.659-3.002-20.143-7.043 1.063-6.912 15.011-23.038 15.011-23.038s-15.156-9.124-22.997-11.382c3.299-9.063 3.715-19.646 4.246-29.542-5.288 0.526-10.794 1.529-15.8 1.947 3.773-7.415 7.524-19.33 8.707-27.234-4.832-0.345-8.614 0.614-13.271 0.888-0.6-8.181 4.984-16.757 5.448-25.026-6.604-1.086-12.564 1.596-19.015 0.602 2.114-9.052 4.324-19.9 4.05-29.337-7.083-1.017-13.413 1.474-20.172 2.931 2.683-6.309 2.14-14.27 1.781-21.317-7.832 0.604-14.648 5.704-22.641 5.422-0.226-4.246-0.348-27.517-0.348-27.517s-16.876 4.71-21.722 5.989c-4.441-7.971-5.338-20.683-7.011-29.872-9.07 0.821-16.398 7.99-24.023 12.634-4.303-6.823-10.769-13.645-16.003-19.876-6.01 5.045-12.732 11.133-18.194 17.006-5.063-3.836-15.851-21.207-15.851-21.207s-10.609 10.746-18.917 16.031c-6.873-5.39-9.485-15.183-18.144-18.44-6.729 6.937-22.919 22.573-30.355 20.818-5.981-1.411-15.814-17.661-15.814-17.661s-9.179 11.406-14.975 19.653c-5.668-4.104-15.935-16.363-23.703-16.835-1.311 5.477 1.105 16.867-1.496 21.651-7.394-2.909-14.028-8.628-21.721-10.413-0.561 5.511 1.376 10.455 0.802 15.945-5.545-4.093-13.089-6.649-19.133-10.171-0.492 7.355-0.437 15.157-0.06 22.5 0.961-1.093 2.185-1.282 3.274-1.929" fill="#231F20"/>
<polygon points="321.07 680.64 326.57 714.89 326.57 680.64" fill="#A38054"/>
<polygon points="358.28 686.14 363.78 715.74 363.78 686.14" fill="#A38054"/>
<polygon points="490.63 686.14 473.24 719.62 476.75 719.97 496.97 687.83" fill="#A38054"/>
<polygon points="519.8 696.03 517.26 722.08 518.53 723.04 524.17 696.03" fill="#A38054"/>
<path d="m249.1 566.16c-2.104 26.684 4.013 69.641 45.262 89.025 31.466 14.787 244.62 9.801 259.75 6.065 50.979-12.584 42.018-91.005 26.161-113.37-2.696-3.804-9.303-13.667-9.303-13.667l-14.973-42.426-274.83-4.598c1e-3 1e-3 -28.4 32.484-32.067 78.975z" fill="#C0A475"/>
<path d="m418.43 651.07c78.537 0 133.71 4.785 149.43-29.919 11.242-24.817-24.962-106.08-24.962-106.08l-244.85-8.788s-26.714 32.216-31.615 66.784c-7.439 52.467 18.472 58.471 33.923 67.318 23.98 13.73 116.79 10.686 116.79 10.686" fill="#FED5A2"/>
<path d="m520.11 317.01c-28.043 0-30.855 24.087-25.007 32.508 4.922 7.086 27.507-0.358 27.507-0.358s18.52 16.749 21.895 10.613c4.995-9.079 6.684-42.763-24.395-42.763z" fill="#C0A475" stroke="#C0A475"/>
<path d="m525.83 336.66c-4.764-1.221-12.803 14.935-12.803 14.935l9.588-2.432 6.801 4.585s0.643-16.004-3.586-17.088z" fill="#FED5A2"/>
<path d="m284.7 314.54c-17.643 8.126-10.022 35.122-6.073 38.556 4.733 4.115 21.75-12.503 21.75-12.503s24.879 0.991 25.762-5.537c0.797-5.895-15.323-32.545-41.439-20.516z" fill="#C0A475"/>
<path d="m291.13 328.8c-4.276 2.44 0 19.693 0 19.693l9.247-7.904 10.439-0.16c0-1e-3 -14.722-14.462-19.686-11.629z" fill="#FED5A2"/>
<path d="m394.68 363.45s54.966-38.886 127.94-14.29c63.588 21.434 76.448 95.894 58.229 136.1-14.496 31.996-106.78 53.011-106.78 53.011l-79.381-131.96-94.262-11.432-21.358 102.39s-32.941-28.445-25.082-88.282c1.966-14.97 3.215-54.531 47.869-73.464 39.082-16.571 92.833 27.917 92.833 27.917z" fill="#C0A475"/>
<path d="m395.55 401.28s27.035-26 65-26c66.108 0 96.357 39.613 99 69.777 5.213 59.502-42.629 83.137-72 93.223-20.54 7.054-86.5-4.074-86.5-4.074s-54.5 4.469-72.5 0c-19.942-4.951-52.161-33.55-59-52.926-4.244-12.023-14.138-94.93 53-106 34.713-5.724 73 26 73 26z" fill="#FED5A2"/>
<ellipse transform="matrix(.9969 -.0788 .0788 .9969 -37.333 37.014)" cx="450.55" cy="491.78" rx="73.75" ry="46.5" fill="#C09B75"/>
<ellipse transform="matrix(.9601 .2798 -.2798 .9601 150.13 -77.497)" cx="346.55" cy="487.18" rx="73.75" ry="44" fill="#C09B75"/>
<ellipse cx="401.05" cy="487.18" rx="59.5" ry="51.098" fill="#C0A475"/>
<path d="m392.08 493.39c0.555 12.254-3.349 32.313 6.175 33.241-3.678-5.485 3.582-43.009-6.175-33.241" fill="#42220F"/>
<path d="m426.1 464.12c0-17.487-21.172-31.662-28.942-31.662-4.359 0-28.941 14.175-28.941 31.662 0 17.486 12.957 31.662 28.941 31.662 15.985 0 28.942-14.176 28.942-31.662z" fill="#42220F"/>
<ellipse cx="471.29" cy="472.52" rx="2.771" ry="2.352" fill="#A38054"/>
<ellipse cx="491.56" cy="479.94" rx="2.77" ry="2.352" fill="#A38054"/>
<ellipse cx="471.29" cy="494.13" rx="2.771" ry="2.352" fill="#A38054"/>
<ellipse cx="336.1" cy="467.82" rx="2.77" ry="2.352" fill="#A38054"/>
<ellipse cx="336.1" cy="489.53" rx="2.77" ry="2.352" fill="#A38054"/>
<ellipse cx="319.46" cy="477.58" rx="2.77" ry="2.352" fill="#A38054"/>
<ellipse cx="336.1" cy="409.71" rx="33.784" ry="29.561" fill="#fff"/>
<ellipse cx="336.1" cy="415.75" rx="23.042" ry="21.742" fill="#14B39F"/>
<ellipse cx="336.1" cy="420.32" rx="15.182" ry="14.111" fill="#231F20"/>
<ellipse cx="341.13" cy="420.32" rx="5.029" ry="5.716" fill="#fff"/>
<ellipse cx="346.55" cy="411.49" rx="3.394" ry="3.065" fill="#fff"/>
<ellipse cx="468.52" cy="415.5" rx="33.784" ry="29.561" fill="#fff"/>
<ellipse cx="468.52" cy="420.61" rx="23.042" ry="21.742" fill="#14B39F"/>
<ellipse cx="468.16" cy="424.02" rx="14.796" ry="14.309" fill="#231F20"/>
<ellipse cx="474.06" cy="423.11" rx="5.029" ry="5.716" fill="#fff"/>
<ellipse cx="480.14" cy="415.75" rx="3.393" ry="3.065" fill="#fff"/>
<polygon points="413.58 645.94 418.06 645.94 419.3 643.14 421.14 645.94 427.59 645.94 420.58 639.09 418.02 639.09" fill="#80511B"/>
<path d="m473.34 596.28c0 26.334-17.137 47.691-38.277 47.691-5.129 0-10.018-1.251-14.48-3.537-4.465 2.277-9.359 3.537-14.482 3.537-21.141 0-38.277-21.357-38.277-47.691s17.137-47.682 38.277-47.682c5.123 0 10.018 1.26 14.482 3.537 4.463-2.286 9.352-3.537 14.48-3.537 21.14 0 38.277 21.348 38.277 47.682z" fill="#F29A7C"/>
<polygon points="421.86 521.22 418.18 551.04 420.58 552.14 423.79 550.7 428.87 515.62" fill="#A38054"/>
<path d="m456.56 506.44c0.402 1.354 1.033 3.578 2.012 4.439 1.23-1.635 9.563-3.988 11.627-4.018 1.363-0.018 1.582 4.482 1.641 5.918 2.475-0.877 8.855-2.53 11.533-2.368 0.035 2.56-0.367 4.392-0.945 7.112 6.387 1.223 13.256 1.357 19.209 3.964-1.17 1.171-13.143 11.702-23.754 11.245 1.045 1.517 2.287 3.659 3.357 5.346-4.359 4.791-20.338 0.66-24.674-2.766 0.063 1.535 0.07 3.107-6e-3 4.631-4.852 0.241-10.326-1.996-14.705-4.063 0.305 1.469 0.193 3.119 0.152 4.644-7.045-2.431-10.664-7.251-10.629-14.832 0.026-5.627 18.509-20.002 25.182-19.252" fill="#C0DB83"/>
<polygon points="452.69 523.46 427.47 525.27 425.79 527.95" fill="#A38054"/>
<path d="m571.12 511.94c-13.465 2.336-31.865 26.942-44.82 31.29-11.478 3.852-36.721 1.4-48.113 5.496-3.832 1.378-11.73 5.291-13.655 8.88-2.052 3.828-1.141 17.336-1.141 17.336s-10.389 6.765-8.861 15.645c2.724 15.835 17.723 16.914 17.723 16.914s0.731 11.276 3.393 13.53c10.018 8.486 39.31 5.793 52.346 4.229 21.143-2.537 33.18-21.443 43.13-30.021 36.12-31.141 29.393-64.031 19.027-74.396-3.714-3.715-13.855-9.8-19.029-8.903z" fill="#C09B75"/>
<path d="m383.23 601.15c-0.958-4.968-12.307-16.067-12.307-16.067s5.732-3.958 6.019-6.077c1.574-11.629-17.518-31.203-26.525-38.724-13.413-11.199-48.145-21.568-65.284-24.967-5.25-1.041-14.297-3.461-21.142 3.383-5.636 5.636-9.227 21.419-6.851 35.057 4.073 23.38 24.107 30.361 36.026 41.476 12.392 11.555 37.954 38.478 61.372 28.753 2.225-0.924 3.745-8.88 3.745-8.88s17.573-1e-3 21.987-3.383c2.179-1.67 3.479-7.877 2.96-10.571z" fill="#C09B75"/>
<polygon points="345.07 581.28 373.53 583.09 370.92 585.08 373.53 587.75" fill="#A38054"/>
<polygon points="332.69 600.73 357.67 617.7 358.28 615.1 361.03 615.05" fill="#A38054"/>
<polygon points="498.32 582.84 463.23 571.43 463.39 574.94 460.55 577.13" fill="#A38054"/>
<polygon points="497.88 606.58 472.33 607.42 472.56 609.96" fill="#A38054"/>
<path d="m378.05 512.98c1.509 9.566 10.05 13.438 18.996 13.429 9.867-0.01 12.868-3.431 14.739-12.773" fill="none" stroke="#42220F" stroke-linecap="round" stroke-linejoin="round" stroke-width="5"/>
<path d="m469.03 390.64c24.479 1.02 33.17 23.997 33.17 23.997s0-28.703-32.339-31.438c-29.522-2.497-34.146 26.566-34.146 26.566s12.402-19.996 33.315-19.125z" fill="#C09B75"/>
<path d="m336.56 387.49c24.478 1.02 33.169 23.997 33.169 23.997s4.325-27.914-32.339-31.438c-30.526-2.935-34.834 26.166-34.834 26.166s13.091-19.596 34.004-18.725z" fill="#C09B75"/>
</svg>